<svg width="15" height="14" viewBox="0 0 15 14" fill="none" xmlns="http://www.w3.org/2000/svg">
<path d="M9.76151 2.87226C8.9147 1.14317 7.14331 0 5.15635 0C2.31325 0 0.000225769 2.2999 0.000225769 5.12683C0.000225769 5.89509 0.165163 6.63145 0.490702 7.31801L0.00875096 9.72806C-0.0525953 10.0348 0.218043 10.306 0.524891 10.2453L2.96465 9.76295C3.29315 9.91878 3.63298 10.0373 3.98216 10.1189C3.19946 6.41176 6.00943 2.93196 9.76151 2.87226Z" fill="black" fill-opacity="0.3"/>
<path d="M14.5083 11.0678C14.5925 10.8903 14.6657 10.7093 14.7283 10.5254H14.7123C15.8093 7.30528 13.5022 3.92087 10.0962 3.75608C10.0961 3.7559 10.0961 3.75573 10.096 3.75555C7.16533 3.6205 4.73047 5.967 4.73047 8.87664C4.73047 11.7012 7.02615 13.9993 9.84977 14.0034C10.6157 14.0024 11.3498 13.8375 12.0343 13.5128C14.7063 14.041 14.498 14.0035 14.5593 14.0035C14.837 14.0035 15.0445 13.749 14.9903 13.4779L14.5083 11.0678Z" fill="black" fill-opacity="0.3"/>
</svg>
